<svg width="48" height="49" viewBox="0 0 48 49" fill="none" xmlns="http://www.w3.org/2000/svg">
<path d="M42 9.81982H6C5.60218 9.81982 5.22064 9.97786 4.93934 10.2592C4.65804 10.5405 4.5 10.922 4.5 11.3198V36.8198C4.5 37.6155 4.81607 38.3785 5.37868 38.9411C5.94129 39.5038 6.70435 39.8198 7.5 39.8198H40.5C41.2957 39.8198 42.0587 39.5038 42.6213 38.9411C43.1839 38.3785 43.5 37.6155 43.5 36.8198V11.3198C43.5 10.922 43.342 10.5405 43.0607 10.2592C42.7794 9.97786 42.3978 9.81982 42 9.81982ZM24 25.7854L9.85687 12.8198H38.1431L24 25.7854ZM18.5081 24.8198L7.5 34.9092V14.7304L18.5081 24.8198ZM20.7281 26.8542L22.9781 28.9261C23.2549 29.1801 23.6168 29.3211 23.9925 29.3211C24.3682 29.3211 24.7301 29.1801 25.0069 28.9261L27.2569 26.8542L38.1319 36.8198H9.85687L20.7281 26.8542ZM29.4919 24.8198L40.5 14.7286V34.9111L29.4919 24.8198Z" fill="#6D9335"/>
</svg>
