<svg width="48" height="49" viewBox="0 0 48 49" fill="none" xmlns="http://www.w3.org/2000/svg">
<path d="M39.0581 15.0098C39.5166 13.5308 39.6637 11.9729 39.4901 10.4342C39.3165 8.89552 38.8259 7.4095 38.0494 6.06985C37.9177 5.84177 37.7283 5.65238 37.5002 5.52073C37.2721 5.38907 37.0134 5.31979 36.75 5.31985C35.0028 5.31619 33.2791 5.72122 31.7164 6.50257C30.1537 7.28392 28.7954 8.41994 27.75 9.81985H23.25C22.2046 8.41994 20.8463 7.28392 19.2836 6.50257C17.7209 5.72122 15.9971 5.31619 14.25 5.31985C13.9866 5.31979 13.7279 5.38907 13.4998 5.52073C13.2717 5.65238 13.0823 5.84177 12.9506 6.06985C12.1741 7.4095 11.6835 8.89552 11.5099 10.4342C11.3363 11.9729 11.4834 13.5308 11.9419 15.0098C11.0151 16.6274 10.5187 18.4557 10.5 20.3198V21.8198C10.5032 24.3579 11.4245 26.809 13.0939 28.7207C14.7633 30.6324 17.068 31.8755 19.5825 32.2205C18.5561 33.5338 17.999 35.153 18 36.8199V38.3199H13.5C12.3065 38.3199 11.1619 37.8457 10.318 37.0018C9.47411 36.1579 9 35.0133 9 33.8199C9 32.8349 8.80601 31.8597 8.4291 30.9497C8.05219 30.0398 7.49974 29.213 6.8033 28.5165C6.10686 27.8201 5.28007 27.2677 4.37013 26.8908C3.46018 26.5138 2.48491 26.3198 1.5 26.3198C1.10218 26.3198 0.720644 26.4779 0.43934 26.7592C0.158035 27.0405 0 27.422 0 27.8198C0 28.2177 0.158035 28.5992 0.43934 28.8805C0.720644 29.1618 1.10218 29.3199 1.5 29.3199C2.69347 29.3199 3.83807 29.794 4.68198 30.6379C5.52589 31.4818 6 32.6264 6 33.8199C6 35.809 6.79018 37.7166 8.1967 39.1231C9.60322 40.5297 11.5109 41.3199 13.5 41.3199H18V44.3199C18 44.7177 18.158 45.0992 18.4393 45.3805C18.7206 45.6618 19.1022 45.8199 19.5 45.8199C19.8978 45.8199 20.2794 45.6618 20.5607 45.3805C20.842 45.0992 21 44.7177 21 44.3199V36.8199C21 35.6264 21.4741 34.4818 22.318 33.6379C23.1619 32.794 24.3065 32.3199 25.5 32.3199C26.6935 32.3199 27.8381 32.794 28.682 33.6379C29.5259 34.4818 30 35.6264 30 36.8199V44.3199C30 44.7177 30.158 45.0992 30.4393 45.3805C30.7206 45.6618 31.1022 45.8199 31.5 45.8199C31.8978 45.8199 32.2794 45.6618 32.5607 45.3805C32.842 45.0992 33 44.7177 33 44.3199V36.8199C33.001 35.153 32.4439 33.5338 31.4175 32.2205C33.932 31.8755 36.2367 30.6324 37.9061 28.7207C39.5755 26.809 40.4968 24.3579 40.5 21.8198V20.3198C40.4813 18.4557 39.9849 16.6274 39.0581 15.0098ZM37.5 21.8198C37.5 23.809 36.7098 25.7166 35.3033 27.1231C33.8968 28.5297 31.9891 29.3199 30 29.3199H21C19.0109 29.3199 17.1032 28.5297 15.6967 27.1231C14.2902 25.7166 13.5 23.809 13.5 21.8198V20.3198C13.5184 18.8199 13.9675 17.3568 14.7938 16.1048C14.9478 15.9018 15.0475 15.6629 15.0836 15.4106C15.1197 15.1583 15.0909 14.901 15 14.663C14.6093 13.6553 14.4213 12.5805 14.4467 11.5001C14.4721 10.4197 14.7105 9.35487 15.1481 8.36672C16.3757 8.49878 17.5578 8.90544 18.6069 9.55654C19.6559 10.2077 20.545 11.0865 21.2081 12.128C21.3433 12.3393 21.5292 12.5134 21.749 12.6342C21.9688 12.7551 22.2154 12.8189 22.4662 12.8198H28.5319C28.7837 12.8199 29.0314 12.7565 29.2523 12.6356C29.4731 12.5147 29.66 12.3401 29.7956 12.128C30.4587 11.0864 31.3477 10.2075 32.3968 9.55637C33.4458 8.90525 34.628 8.49865 35.8556 8.36672C36.2927 9.35511 36.5304 10.42 36.5552 11.5005C36.58 12.5809 36.3913 13.6556 36 14.663C35.9093 14.8988 35.879 15.1535 35.9118 15.404C35.9445 15.6544 36.0393 15.8928 36.1875 16.0973C37.022 17.3493 37.4777 18.8154 37.5 20.3198V21.8198Z" fill="#6D9335"/>
</svg>
