<svg width="48" height="49" viewBox="0 0 48 49" fill="none" xmlns="http://www.w3.org/2000/svg">
<path d="M24 15.8198C22.22 15.8198 20.4799 16.3477 18.9999 17.3366C17.5198 18.3255 16.3663 19.7311 15.6851 21.3757C15.0039 23.0202 14.8257 24.8298 15.1729 26.5756C15.5202 28.3215 16.3774 29.9251 17.636 31.1838C18.8947 32.4425 20.4984 33.2996 22.2442 33.6469C23.99 33.9942 25.7996 33.8159 27.4442 33.1347C29.0887 32.4536 30.4943 31.3 31.4832 29.82C32.4722 28.3399 33 26.5999 33 24.8198C32.9975 22.4336 32.0485 20.1459 30.3612 18.4586C28.6739 16.7713 26.3862 15.8223 24 15.8198ZM24 30.8198C22.8133 30.8198 21.6533 30.4679 20.6666 29.8086C19.6799 29.1494 18.9108 28.2123 18.4567 27.1159C18.0026 26.0196 17.8838 24.8132 18.1153 23.6493C18.3468 22.4854 18.9182 21.4163 19.7574 20.5772C20.5965 19.7381 21.6656 19.1666 22.8295 18.9351C23.9933 18.7036 25.1997 18.8224 26.2961 19.2765C27.3925 19.7307 28.3295 20.4997 28.9888 21.4864C29.6481 22.4731 30 23.6331 30 24.8198C30 26.4111 29.3679 27.9372 28.2426 29.0625C27.1174 30.1877 25.5913 30.8198 24 30.8198ZM33 5.31982H15C12.2161 5.3228 9.54715 6.43001 7.57867 8.39849C5.61018 10.367 4.50298 13.036 4.5 15.8198V33.8198C4.50298 36.6037 5.61018 39.2727 7.57867 41.2412C9.54715 43.2096 12.2161 44.3168 15 44.3198H33C35.7839 44.3168 38.4528 43.2096 40.4213 41.2412C42.3898 39.2727 43.497 36.6037 43.5 33.8198V15.8198C43.497 13.036 42.3898 10.367 40.4213 8.39849C38.4528 6.43001 35.7839 5.3228 33 5.31982ZM40.5 33.8198C40.5 35.8089 39.7098 37.7166 38.3033 39.1231C36.8968 40.5296 34.9891 41.3198 33 41.3198H15C13.0109 41.3198 11.1032 40.5296 9.6967 39.1231C8.29018 37.7166 7.5 35.8089 7.5 33.8198V15.8198C7.5 13.8307 8.29018 11.923 9.6967 10.5165C11.1032 9.11 13.0109 8.31982 15 8.31982H33C34.9891 8.31982 36.8968 9.11 38.3033 10.5165C39.7098 11.923 40.5 13.8307 40.5 15.8198V33.8198ZM36 15.0698C36 15.5148 35.868 15.9498 35.6208 16.3199C35.3736 16.6899 35.0222 16.9783 34.611 17.1486C34.1999 17.3189 33.7475 17.3634 33.311 17.2766C32.8746 17.1898 32.4737 16.9755 32.159 16.6608C31.8443 16.3461 31.63 15.9452 31.5432 15.5088C31.4564 15.0723 31.501 14.6199 31.6713 14.2088C31.8416 13.7977 32.13 13.4462 32.5 13.199C32.87 12.9518 33.305 12.8198 33.75 12.8198C34.3467 12.8198 34.919 13.0569 35.341 13.4788C35.7629 13.9008 36 14.4731 36 15.0698Z" fill="#73abe7"/>
</svg>
