<svg width="48" height="49" viewBox="0 0 48 49" fill="none" xmlns="http://www.w3.org/2000/svg">
<path d="M42 14.3198C39.6138 14.3173 37.3261 13.3683 35.6388 11.681C33.9515 9.99375 33.0025 7.70601 33 5.31982C33 4.922 32.842 4.54047 32.5607 4.25916C32.2794 3.97786 31.8978 3.81982 31.5 3.81982H24C23.6022 3.81982 23.2206 3.97786 22.9393 4.25916C22.658 4.54047 22.5 4.922 22.5 5.31982V30.0698C22.4997 30.7409 22.3193 31.3995 21.9777 31.9771C21.6361 32.5547 21.1458 33.03 20.5579 33.3535C19.97 33.677 19.3061 33.8369 18.6354 33.8164C17.9646 33.7958 17.3117 33.5957 16.7447 33.2369C16.1777 32.8781 15.7173 32.3737 15.4116 31.7763C15.106 31.1789 14.9662 30.5105 15.0069 29.8407C15.0476 29.1709 15.2673 28.5243 15.643 27.9683C16.0188 27.4123 16.5368 26.9674 17.1431 26.6798C17.3996 26.5581 17.6163 26.3661 17.7679 26.1261C17.9196 25.8862 18.0001 25.6081 18 25.3242V17.3198C18.0001 17.1006 17.9521 16.8839 17.8594 16.6852C17.7668 16.4865 17.6317 16.3105 17.4636 16.1697C17.2956 16.0288 17.0987 15.9265 16.8869 15.8699C16.675 15.8134 16.4534 15.804 16.2375 15.8423C9.54562 17.0348 4.5 23.1511 4.5 30.0698C4.5 33.8492 6.00133 37.4737 8.67373 40.1461C11.3461 42.8185 14.9707 44.3198 18.75 44.3198C22.5293 44.3198 26.1539 42.8185 28.8263 40.1461C31.4987 37.4737 33 33.8492 33 30.0698V22.6242C35.7781 24.0737 38.8665 24.8271 42 24.8198C42.3978 24.8198 42.7794 24.6618 43.0607 24.3805C43.342 24.0992 43.5 23.7176 43.5 23.3198V15.8198C43.5 15.422 43.342 15.0405 43.0607 14.7592C42.7794 14.4779 42.3978 14.3198 42 14.3198ZM40.5 21.7523C37.5687 21.4926 34.7618 20.4464 32.3756 18.7242C32.1513 18.5629 31.8869 18.4668 31.6114 18.4462C31.336 18.4257 31.0602 18.4817 30.8145 18.6079C30.5688 18.7342 30.3627 18.9258 30.219 19.1617C30.0753 19.3976 29.9995 19.6686 30 19.9448V30.0698C30 33.0535 28.8147 35.915 26.705 38.0248C24.5952 40.1346 21.7337 41.3198 18.75 41.3198C15.7663 41.3198 12.9048 40.1346 10.795 38.0248C8.68526 35.915 7.5 33.0535 7.5 30.0698C7.5 25.2136 10.62 20.858 15 19.2698V24.4579C14.0303 25.1058 13.2451 25.9939 12.7207 27.0355C12.1964 28.0772 11.9509 29.2369 12.0081 30.4017C12.0654 31.5665 12.4234 32.6966 13.0473 33.6818C13.6712 34.667 14.5398 35.4738 15.5683 36.0235C16.5968 36.5732 17.7502 36.8471 18.916 36.8184C20.0818 36.7897 21.2203 36.4595 22.2206 35.8599C23.2208 35.2603 24.0486 34.4118 24.6233 33.397C25.1981 32.3823 25.5001 31.236 25.5 30.0698V6.81982H30.0938C30.4311 9.46185 31.636 11.9171 33.5193 13.8005C35.4027 15.6839 37.858 16.8887 40.5 17.2261V21.7523Z" fill="#fe4510"/>
</svg>
