<svg width="48" height="48" viewBox="0 0 48 48" fill="none" xmlns="http://www.w3.org/2000/svg">
<path d="M44.8932 24.9375L38.8932 9.9375C38.7809 9.6601 38.5883 9.42261 38.3401 9.25554C38.0918 9.08848 37.7993 8.99948 37.5 9C37.3908 9.00166 37.2821 9.01486 37.1757 9.03937L25.5 11.625V7.5C25.5 7.10218 25.342 6.72064 25.0607 6.43934C24.7794 6.15804 24.3979 6 24 6C23.6022 6 23.2207 6.15804 22.9394 6.43934C22.6581 6.72064 22.5 7.10218 22.5 7.5V12.2963L10.1757 15.0394C9.93805 15.0912 9.71661 15.2001 9.53043 15.3565C9.34424 15.513 9.19889 15.7124 9.1069 15.9375L3.1069 30.9375C3.03513 31.1163 2.99883 31.3073 3.00003 31.5C3.00003 35.8706 7.60128 37.5 10.5 37.5C13.3988 37.5 18 35.8706 18 31.5C18.0012 31.3073 17.9649 31.1163 17.8932 30.9375L12.5475 17.5819L22.5 15.375V39H19.5C19.1022 39 18.7207 39.158 18.4394 39.4393C18.1581 39.7206 18 40.1022 18 40.5C18 40.8978 18.1581 41.2794 18.4394 41.5607C18.7207 41.842 19.1022 42 19.5 42H28.5C28.8979 42 29.2794 41.842 29.5607 41.5607C29.842 41.2794 30 40.8978 30 40.5C30 40.1022 29.842 39.7206 29.5607 39.4393C29.2794 39.158 28.8979 39 28.5 39H25.5V14.7037L35.0625 12.5812L30.1069 24.9375C30.0351 25.1163 29.9988 25.3073 30 25.5C30 29.8706 34.6013 31.5 37.5 31.5C40.3988 31.5 45 29.8706 45 25.5C45.0012 25.3073 44.9649 25.1163 44.8932 24.9375ZM14.8932 31.5H6.11628L10.5 20.5387L14.8932 31.5ZM33.1257 25.5L37.5 14.5387L41.8838 25.5H33.1257Z" fill="black"/>
</svg>
