<svg width="49" height="48" viewBox="0 0 49 48" fill="none" xmlns="http://www.w3.org/2000/svg">
<path d="M33.6667 43.5C33.6667 43.8979 33.5087 44.2794 33.2274 44.5607C32.9461 44.842 32.5646 45 32.1667 45H17.1667C16.7689 45 16.3874 44.842 16.1061 44.5607C15.8248 44.2794 15.6667 43.8979 15.6667 43.5C15.6667 43.1022 15.8248 42.7207 16.1061 42.4394C16.3874 42.1581 16.7689 42 17.1667 42H32.1667C32.5646 42 32.9461 42.1581 33.2274 42.4394C33.5087 42.7207 33.6667 43.1022 33.6667 43.5ZM41.1667 19.5C41.1732 22.0006 40.6083 24.4696 39.5152 26.7186C38.422 28.9676 36.8295 30.9371 34.8592 32.4769C34.4908 32.7593 34.1919 33.1222 33.9852 33.5378C33.7785 33.9535 33.6696 34.4108 33.6667 34.875V36C33.6667 36.7957 33.3507 37.5587 32.7881 38.1213C32.2255 38.684 31.4624 39 30.6667 39H18.6667C17.8711 39 17.108 38.684 16.5454 38.1213C15.9828 37.5587 15.6667 36.7957 15.6667 36V34.875C15.6664 34.4164 15.561 33.9639 15.3585 33.5524C15.156 33.1409 14.8618 32.7813 14.4986 32.5013C12.5335 30.9708 10.9422 29.0134 9.84524 26.7772C8.74825 24.541 8.17428 22.0846 8.16675 19.5938C8.118 10.6557 15.3405 3.21565 24.2692 3.00003C26.4693 2.94701 28.6577 3.33463 30.7057 4.14006C32.7536 4.9455 34.6198 6.15247 36.1943 7.68995C37.7688 9.22743 39.0199 11.0643 39.8738 13.0926C40.7278 15.1208 41.1674 17.2994 41.1667 19.5ZM38.1667 19.5C38.1673 17.6994 37.8076 15.9168 37.1088 14.2573C36.4101 12.5978 35.3864 11.0948 34.098 9.83686C32.8097 8.57891 31.2827 7.59141 29.607 6.93248C27.9312 6.27355 26.1406 5.95651 24.3405 6.00003C17.028 6.17253 11.1274 12.2607 11.1667 19.5732C11.1735 21.6105 11.6435 23.6197 12.5414 25.4486C13.4393 27.2774 14.7414 28.8781 16.3492 30.1294C17.072 30.6912 17.6565 31.411 18.0582 32.2335C18.4599 33.0561 18.6681 33.9596 18.6667 34.875V36H23.1667V27.6207L17.6055 22.0613C17.324 21.7798 17.1659 21.3981 17.1659 21C17.1659 20.602 17.324 20.2202 17.6055 19.9388C17.887 19.6573 18.2687 19.4992 18.6667 19.4992C19.0648 19.4992 19.4465 19.6573 19.728 19.9388L24.6667 24.8794L29.6055 19.9388C29.7449 19.7994 29.9103 19.6889 30.0924 19.6134C30.2745 19.538 30.4697 19.4992 30.6667 19.4992C30.8638 19.4992 31.059 19.538 31.2411 19.6134C31.4232 19.6889 31.5886 19.7994 31.728 19.9388C31.8674 20.0781 31.9779 20.2436 32.0533 20.4257C32.1288 20.6078 32.1676 20.8029 32.1676 21C32.1676 21.1971 32.1288 21.3923 32.0533 21.5744C31.9779 21.7565 31.8674 21.9219 31.728 22.0613L26.1667 27.6207V36H30.6667V34.875C30.6684 33.957 30.8799 33.0514 31.2852 32.2276C31.6904 31.4038 32.2786 30.6836 33.0049 30.1219C34.6176 28.8616 35.921 27.2495 36.8156 25.4086C37.7102 23.5677 38.1723 21.5468 38.1667 19.5Z" fill="black"/>
</svg>
