<svg width="49" height="48" viewBox="0 0 49 48" fill="none" xmlns="http://www.w3.org/2000/svg">
<g clip-path="url(#clip0_2558_135)">
<path d="M48.0168 20.2322L43.2314 10.658C43.0551 10.3056 42.8111 9.99141 42.5134 9.73332C42.2156 9.47522 41.87 9.2783 41.4961 9.15381C41.1223 9.02931 40.7276 8.97967 40.3345 9.00773C39.9415 9.03579 39.5578 9.14099 39.2054 9.31733L34.5419 11.6481L24.718 9.0492C24.466 8.9836 24.2013 8.9836 23.9492 9.0492L14.1253 11.6481L9.46181 9.31733C9.10944 9.14099 8.72577 9.03579 8.33274 9.00773C7.9397 8.97967 7.54498 9.02931 7.17113 9.15381C6.79728 9.2783 6.45161 9.47522 6.15387 9.73332C5.85613 9.99141 5.61215 10.3056 5.43586 10.658L0.65048 20.2303C0.474134 20.5827 0.368927 20.9663 0.340868 21.3593C0.31281 21.7524 0.362448 22.1471 0.48695 22.5209C0.611451 22.8947 0.808376 23.2404 1.06648 23.5381C1.32458 23.8358 1.63881 24.0798 1.99121 24.2561L7.05412 26.7893L17.4593 34.2203C17.6126 34.3294 17.785 34.4089 17.9675 34.4547L29.9685 37.4548C30.2198 37.5178 30.4831 37.5147 30.7329 37.4457C30.9826 37.3767 31.2103 37.2442 31.3936 37.061L38.8942 29.5607L41.7219 26.7331L46.676 24.2561C47.3873 23.9001 47.928 23.2762 48.1794 22.5217C48.4308 21.7671 48.3723 20.9436 48.0168 20.2322ZM37.7241 26.4893L31.2717 21.3216C30.9826 21.0901 30.6181 20.9737 30.2484 20.9949C29.8787 21.016 29.5298 21.1731 29.269 21.436C25.9294 24.7999 22.2072 24.3742 19.8333 22.8742L27.9414 14.9988H33.9063L39.0085 25.2011L37.7241 26.4893ZM29.8728 34.3384L18.9744 31.6139L9.74871 25.0249L14.9991 14.5244L24.3336 12.0512L26.1713 12.5368L17.7331 20.7272L17.7181 20.7441C17.4005 21.0617 17.1582 21.4466 17.0092 21.8704C16.8602 22.2941 16.8083 22.7459 16.8572 23.1925C16.9062 23.639 17.0548 24.0688 17.292 24.4502C17.5293 24.8316 17.8492 25.1549 18.2281 25.3962C22.0834 27.8581 26.7357 27.4587 30.3997 24.4586L35.5845 28.6232L29.8728 34.3384ZM25.0499 40.8637C24.9689 41.1879 24.7819 41.4758 24.5186 41.6816C24.2554 41.8875 23.9309 41.9995 23.5967 42C23.4734 41.9998 23.3507 41.9847 23.231 41.955L15.4098 39.9993C15.227 39.9542 15.0546 39.8746 14.9016 39.7649L9.9606 36.236C9.65679 35.9975 9.4567 35.6509 9.402 35.2686C9.3473 34.8862 9.4422 34.4975 9.66694 34.1834C9.89168 33.8692 10.2289 33.6539 10.6085 33.5822C10.988 33.5105 11.3806 33.5879 11.7045 33.7984L16.413 37.1623L23.9586 39.0449C24.3445 39.1414 24.6762 39.3872 24.8809 39.7283C25.0855 40.0694 25.1464 40.4778 25.0499 40.8637Z" fill="black"/>
</g>
<defs>
<clipPath id="clip0_2558_135">
<rect width="48" height="48" fill="white" transform="translate(0.333252)"/>
</clipPath>
</defs>
</svg>
