<svg width="49" height="49" viewBox="0 0 49 49" fill="none" xmlns="http://www.w3.org/2000/svg">
<path d="M24.3333 5C20.4765 5 16.7064 6.14366 13.4996 8.28634C10.2929 10.429 7.79352 13.4745 6.31761 17.0377C4.8417 20.6008 4.45554 24.5216 5.20795 28.3043C5.96036 32.0869 7.81755 35.5615 10.5447 38.2886C13.2718 41.0157 16.7464 42.8729 20.529 43.6253C24.3116 44.3777 28.2324 43.9916 31.7956 42.5156C35.3587 41.0397 38.4042 38.5404 40.5469 35.3336C42.6896 32.1269 43.8333 28.3567 43.8333 24.5C43.8278 19.33 41.7716 14.3732 38.1158 10.7174C34.46 7.06167 29.5033 5.00546 24.3333 5ZM32.8945 25.5613L26.8945 31.5613C26.6131 31.8427 26.2313 32.0008 25.8333 32.0008C25.4352 32.0008 25.0535 31.8427 24.772 31.5613C24.4905 31.2798 24.3324 30.898 24.3324 30.5C24.3324 30.102 24.4905 29.7202 24.772 29.4387L28.2126 26H16.8333C16.4354 26 16.0539 25.842 15.7726 25.5607C15.4913 25.2794 15.3333 24.8978 15.3333 24.5C15.3333 24.1022 15.4913 23.7206 15.7726 23.4393C16.0539 23.158 16.4354 23 16.8333 23H28.2126L24.772 19.5613C24.4905 19.2798 24.3324 18.898 24.3324 18.5C24.3324 18.102 24.4905 17.7202 24.772 17.4387C25.0535 17.1573 25.4352 16.9992 25.8333 16.9992C26.2313 16.9992 26.6131 17.1573 26.8945 17.4387L32.8945 23.4387C33.034 23.5781 33.1446 23.7435 33.2201 23.9256C33.2956 24.1077 33.3344 24.3029 33.3344 24.5C33.3344 24.6971 33.2956 24.8923 33.2201 25.0744C33.1446 25.2565 33.034 25.4219 32.8945 25.5613Z" fill="#FFAE22"/>
</svg>
