<svg width="247" height="241" viewBox="0 0 247 241" fill="none" xmlns="http://www.w3.org/2000/svg">
<path d="M15.379 -17.4411C4.5271 -43.9694 -6.34673 -70.507 -17.9958 -96.7157C-19.0231 -98.8257 -20.5203 -102.199 -21.6319 -104.202C-24.1867 -108.313 -29.1872 -108.794 -33.5425 -107.846C-37.2912 -106.924 -54.5762 -100.848 -54.2657 -112.202C-51.79 -121.867 -41.3929 -126.615 -31.9277 -127.126C-20.696 -128.163 -9.10126 -120.329 -6.09112 -109.38C-0.488968 -90.4715 6.56381 -72.0176 13.0601 -53.4133C16.8988 -42.6152 20.8375 -31.8391 24.8075 -21.0756C26.9291 -14.9231 18.0228 -11.3891 15.3853 -17.4255L15.379 -17.4411Z" fill="#FE4510"/>
<path d="M213.844 66.6631L180.667 25.4449C178.98 23.3635 178.046 20.7624 178.019 18.0701L177.534 -20.4332C177.444 -27.5816 171.148 -33.0587 164.063 -32.1779L141.897 -29.4064C139.239 -29.0667 136.543 -29.637 134.247 -31.0206L96.6179 -53.5638C91.7719 -56.4652 85.5716 -55.5944 81.7096 -51.4701L70.6048 -39.6165C68.6395 -37.5042 65.9606 -36.1764 63.0808 -35.8928L7.83912 -30.1855C3.62416 -29.7476 -0.0388006 -27.1182 -1.81524 -23.2675L-17.8499 11.5894C-18.6335 13.3005 -19.7988 14.7836 -21.2708 15.9543L-54.3699 42.3213C-59.6671 46.5312 -60.4212 54.29 -56.0489 59.4495L-33.051 86.5879C-29.2639 91.0568 -29.259 97.5861 -33.0301 102.073L-33.3487 102.455C-37.1354 106.948 -37.118 113.509 -33.2996 117.965L-10.3739 144.788C-10.1736 145.016 -9.98891 145.25 -9.81986 145.491L21.4857 188.149C25.6364 193.797 33.7143 194.713 38.9987 190.109L61.9522 170.204C65.2804 167.328 69.8984 166.492 74.0179 168.034L116.911 184.113C119.492 185.074 122.306 185.125 124.917 184.26C126.627 183.684 128.343 183.123 130.053 182.546C133.62 181.352 137.542 181.902 140.646 184.033C140.718 184.077 140.796 184.136 140.868 184.18C148.076 189.128 158.07 184.958 159.465 176.307C161.239 165.346 164.51 152.55 170.479 139.018C182.292 112.185 199.477 94.1389 212.196 83.3254C217.162 79.1033 217.923 71.7228 213.822 66.6538L213.844 66.6631Z" fill="#FE4510"/>
<mask id="mask0_2667_148" style="mask-type:alpha" maskUnits="userSpaceOnUse" x="90" y="34" width="59" height="58">
<path d="M108.952 36.7213C94.2765 42.6041 87.1487 59.2699 93.0315 73.9453C98.9144 88.6207 115.58 95.7485 130.256 89.8657C144.931 83.9828 152.059 67.3171 146.176 52.6417C140.293 37.9663 123.627 30.8385 108.952 36.7213Z" fill="#F8FFF8"/>
</mask>
<g mask="url(#mask0_2667_148)">
<path d="M108.952 36.7213C94.2765 42.6041 87.1487 59.2699 93.0315 73.9453C98.9144 88.6207 115.58 95.7485 130.256 89.8657C144.931 83.9828 152.059 67.3171 146.176 52.6417C140.293 37.9663 123.627 30.8385 108.952 36.7213Z" fill="#F8FFF8"/>
<path d="M106.78 40.3297C94.2623 45.3474 88.1827 59.5623 93.2004 72.0796C98.2181 84.5968 112.433 90.6764 124.95 85.6587C137.468 80.641 143.547 66.4261 138.529 53.9089C133.512 41.3916 119.297 35.312 106.78 40.3297Z" fill="#0F1919"/>
</g>
<mask id="mask1_2667_148" style="mask-type:alpha" maskUnits="userSpaceOnUse" x="25" y="80" width="59" height="58">
<path d="M43.9431 82.7378C29.2677 88.6206 22.1399 105.286 28.0228 119.962C33.9056 134.637 50.5713 141.765 65.2467 135.882C79.9221 129.999 87.0499 113.334 81.167 98.6582C75.2842 83.9828 58.6184 76.8549 43.9431 82.7378Z" fill="#F8FFF8"/>
</mask>
<g mask="url(#mask1_2667_148)">
<path d="M43.9431 82.7378C29.2677 88.6206 22.1399 105.286 28.0228 119.962C33.9056 134.637 50.5713 141.765 65.2467 135.882C79.9221 129.999 87.0499 113.334 81.167 98.6582C75.2842 83.9828 58.6184 76.8549 43.9431 82.7378Z" fill="#F8FFF8"/>
<path d="M46.4597 84.4662C33.9425 89.4839 27.8629 103.699 32.8806 116.216C37.8983 128.733 52.1132 134.813 64.6305 129.795C77.1477 124.777 83.2273 110.563 78.2095 98.0453C73.1918 85.5281 58.9769 79.4485 46.4597 84.4662Z" fill="#0F1919"/>
</g>
<path d="M54.786 61.3563C55.2319 59.6173 56.5048 55.6418 60.1546 52.1649C64.52 47.9839 69.5164 47.1422 71.2424 46.922" stroke="#0F1919" stroke-width="4" stroke-linecap="round" stroke-linejoin="round"/>
</svg>
