<svg width="234" height="221" viewBox="0 0 234 221" fill="none" xmlns="http://www.w3.org/2000/svg">
<path d="M8.928 116.845L30.2459 169.237C31.3344 171.886 31.492 174.836 30.6931 177.601L19.3688 217.176C17.266 224.523 22.0311 232.064 29.5566 233.338L53.1043 237.305C55.93 237.773 58.5155 239.185 60.442 241.306L92.0517 275.942C96.123 280.401 102.739 281.413 107.96 278.376L122.97 269.647C125.631 268.088 128.782 267.551 131.818 268.144L190.135 279.26C194.586 280.106 199.144 278.538 202.145 275.141L229.265 244.372C230.593 242.86 232.242 241.699 234.108 240.952L276.096 224.116C282.812 221.431 285.966 213.718 283.073 207.092L267.856 172.243C265.351 166.505 267.35 159.817 272.589 156.381L273.033 156.087C278.29 152.649 280.286 145.926 277.744 140.191L262.504 105.687C262.369 105.392 262.252 105.095 262.153 104.797L243.194 51.5053C240.678 44.4481 232.687 41.0296 225.863 44.1214L196.248 57.4565C191.957 59.3798 186.972 58.8173 183.227 55.9739L144.242 26.341C141.895 24.5644 139.029 23.6481 136.09 23.7324C134.162 23.7978 132.233 23.8454 130.305 23.9108C126.285 24.0383 122.439 22.2705 119.915 19.1363C119.855 19.0694 119.793 18.9846 119.732 18.9177C113.87 11.6382 102.357 12.8393 98.2729 21.2689C93.0907 31.9486 85.8132 44.0462 75.5467 56.07C55.2127 79.919 32.0749 93.1218 15.7311 100.289C9.35013 103.088 6.30535 110.412 8.94755 116.861L8.928 116.845Z" fill="#6d9335"/>
<mask id="mask0_2667_133" style="mask-type:alpha" maskUnits="userSpaceOnUse" x="73" y="118" width="62" height="62">
<path d="M107.141 179.708C123.974 178.19 136.389 163.313 134.871 146.48C133.353 129.647 118.476 117.231 101.643 118.75C84.81 120.268 72.3948 135.144 73.913 151.978C75.4312 168.811 90.308 181.226 107.141 179.708Z" fill="#F8FFF8"/>
</mask>
<g mask="url(#mask0_2667_133)">
<path d="M107.141 179.708C123.974 178.19 136.389 163.313 134.871 146.48C133.353 129.647 118.476 117.231 101.643 118.75C84.81 120.268 72.3948 135.144 73.913 151.978C75.4312 168.811 90.308 181.226 107.141 179.708Z" fill="#F8FFF8"/>
<path d="M110.473 176.68C124.831 175.385 135.421 162.696 134.126 148.338C132.831 133.981 120.142 123.391 105.784 124.686C91.4263 125.981 80.8369 138.67 82.1318 153.028C83.4268 167.386 96.1157 177.975 110.473 176.68Z" fill="#0F1919"/>
</g>
<mask id="mask1_2667_133" style="mask-type:alpha" maskUnits="userSpaceOnUse" x="154" y="91" width="62" height="62">
<path d="M187.836 152.548C204.669 151.03 217.084 136.153 215.566 119.32C214.048 102.487 199.171 90.0717 182.338 91.5899C165.505 93.1081 153.09 107.985 154.608 124.818C156.126 141.651 171.003 154.066 187.836 152.548Z" fill="#F8FFF8"/>
</mask>
<g mask="url(#mask1_2667_133)">
<path d="M187.836 152.548C204.669 151.03 217.084 136.153 215.566 119.32C214.048 102.487 199.171 90.0717 182.338 91.5899C165.505 93.1081 153.09 107.985 154.608 124.818C156.126 141.651 171.003 154.066 187.836 152.548Z" fill="#F8FFF8"/>
<path d="M185.789 150.006C200.147 148.711 210.736 136.022 209.442 121.664C208.147 107.307 195.458 96.7173 181.1 98.0122C166.742 99.3072 156.153 111.996 157.448 126.354C158.743 140.711 171.432 151.301 185.789 150.006Z" fill="#0F1919"/>
</g>
<path d="M170.169 171.112C169.178 172.756 166.654 176.436 161.85 178.875C156.096 181.816 150.721 181.144 148.887 180.84" stroke="#0F1919" stroke-width="4" stroke-linecap="round" stroke-linejoin="round"/>
</svg>
