<svg width="1280" height="748" viewBox="0 0 1280 748" fill="none" xmlns="http://www.w3.org/2000/svg" xmlns:xlink="http://www.w3.org/1999/xlink">
<g opacity="0.15">
<mask id="mask0_2566_22" style="mask-type:alpha" maskUnits="userSpaceOnUse" x="0" y="0" width="1280" height="748">
<rect width="1280" height="748" fill="#D9D9D9"/>
</mask>
<g mask="url(#mask0_2566_22)">
<rect y="-1" width="1280" height="749" fill="url(#pattern0_2566_22)"/>
</g>
</g>
<defs>
<pattern id="pattern0_2566_22" patternUnits="userSpaceOnUse" viewBox="-16828 -9299.22 276 520" width="21.5625%" height="69.42590120160213%" patternContentUnits="objectBoundingBox">
<g id="pattern0_2566_22_inner">
<g clip-path="url(#clip0_2566_22)">
<path d="M-17069.4 -9280.76C-17062.5 -9281.63 -17056.2 -9284.83 -17051.4 -9289.81C-17044.8 -9296.65 -17033.9 -9296.84 -17027.1 -9290.23C-17022.2 -9285.41 -17015.7 -9282.44 -17008.9 -9281.8C-16999.4 -9280.93 -16992.5 -9272.53 -16993.4 -9263.08C-16994.1 -9256.21 -16992.4 -9249.29 -16988.6 -9243.52C-16983.4 -9235.58 -16985.6 -9224.92 -16993.6 -9219.76C-16999.4 -9215.99 -17003.7 -9210.35 -17005.9 -9203.78C-17008.8 -9194.77 -17018.5 -9189.87 -17027.5 -9192.87C-17034.1 -9195.06 -17041.2 -9194.95 -17047.7 -9192.52C-17056.5 -9189.22 -17066.4 -9193.77 -17069.7 -9202.69C-17072.1 -9209.18 -17076.6 -9214.67 -17082.5 -9218.23C-17090.7 -9223.11 -17093.2 -9233.69 -17088.3 -9241.8C-17084.7 -9247.7 -17083.3 -9254.66 -17084.2 -9261.52C-17085.4 -9270.92 -17078.8 -9279.55 -17069.4 -9280.76H-17069.4Z" fill="#FE4510"/>
<path d="M-16967 -9211.71L-16935.2 -9247.43C-16934.2 -9248.5 -16932.5 -9248.57 -16931.5 -9247.55C-16912.7 -9228.87 -16911.6 -9198.07 -16929.4 -9178.07C-16947.3 -9158.08 -16977.9 -9155.73 -16998.6 -9172.34C-16999.7 -9173.24 -16999.9 -9174.91 -16998.9 -9175.99L-16967 -9211.71V-9211.71Z" fill="#73ABE7"/>
<path d="M-16873.4 -9294.91C-16864.4 -9294.28 -16855.7 -9291.26 -16848.1 -9285.66C-16826.1 -9269.52 -16821.7 -9237.86 -16837.7 -9214.1C-16838.4 -9213.04 -16839.9 -9212.79 -16840.9 -9213.55L-16856.3 -9224.87C-16857.3 -9225.58 -16857.5 -9226.91 -16856.9 -9227.92C-16848.5 -9240.98 -16850.7 -9258.29 -16862 -9266.63C-16873.4 -9274.98 -16890.5 -9271.84 -16900.5 -9259.96C-16901.3 -9259.05 -16902.6 -9258.92 -16903.6 -9259.61L-16919 -9270.93C-16920 -9271.69 -16920.2 -9273.16 -16919.4 -9274.15C-16907.7 -9288.77 -16890.2 -9296.08 -16873.4 -9294.9L-16873.4 -9294.91Z" fill="#6D9335"/>
<path d="M-17084.7 -9080.45C-17066.8 -9060.69 -17036.3 -9059.2 -17016.6 -9077.11C-16996.8 -9095.01 -16995.3 -9125.55 -17013.2 -9145.3C-17031.1 -9165.06 -17061.6 -9166.56 -17081.4 -9148.65C-17101.1 -9130.74 -17102.6 -9100.21 -17084.7 -9080.45Z" fill="#FFAE22"/>
<path d="M-16867 -9180.63C-16860.1 -9181.33 -16854 -9176.34 -16853.3 -9169.47C-16852.6 -9162.6 -16857.6 -9156.46 -16864.5 -9155.76L-16893.7 -9152.76L-16901.8 -9121.5C-16902.9 -9117.39 -16905.9 -9114.1 -16910 -9112.76L-16939.1 -9103.1L-16945.7 -9069.48C-16947 -9062.7 -16953.5 -9058.27 -16960.3 -9059.58C-16967.1 -9060.9 -16971.5 -9067.45 -16970.2 -9074.23L-16962.3 -9115.04L-16962.2 -9115.45C-16961.2 -9119.7 -16958.1 -9123.15 -16954 -9124.53L-16924.3 -9134.36L-16915.7 -9167.44L-16915.6 -9167.92C-16914.1 -9172.73 -16909.9 -9176.23 -16904.9 -9176.75L-16867 -9180.63Z" fill="#FE4510"/>
<path d="M-16833.1 -9063C-16831.3 -9057.96 -16835.2 -9052.73 -16840.5 -9052.99L-16904.5 -9056.08C-16910.5 -9056.37 -16913.7 -9063.23 -16910.1 -9068.05L-16867.6 -9125.35C-16864.1 -9130.16 -16856.6 -9129.04 -16854.6 -9123.39L-16833.1 -9063H-16833.1Z" fill="#73ABE7"/>
</g>
</g>
<use xlink:href="#pattern0_2566_22_inner" transform="translate(276 0)"/>
<use xlink:href="#pattern0_2566_22_inner" transform="translate(138 260)"/>
<use xlink:href="#pattern0_2566_22_inner" transform="translate(414 260)"/>
</pattern><clipPath id="clip0_2566_22">
<rect width="276" height="260" fill="white" transform="translate(-17104 -9299.22)"/>
</clipPath>
</defs>
</svg>
