<svg width="200" height="37" viewBox="0 0 200 37" fill="none" xmlns="http://www.w3.org/2000/svg">
<path d="M14.6545 13.4708C13.9646 14.5006 12.4503 14.5006 11.7605 13.4708L7.26957 6.76674C6.49441 5.60957 7.32377 4.05578 8.71657 4.05578L17.6984 4.05578C19.0912 4.05578 19.9205 5.60958 19.1454 6.76674L14.6545 13.4708Z" fill="#73ABE7"/>
<rect y="14.8395" width="26.4151" height="8.60717" rx="1.74165" fill="#FFAE22"/>
<ellipse cx="13.2075" cy="30.1246" rx="6.67797" ry="6.67798" fill="#FE4510"/>
<path d="M82.7286 27.9013V31.5364C82.7286 32.5042 81.9378 33.2889 80.9626 33.2889H60.6921C59.7165 33.2889 58.926 32.5042 58.926 31.5364V6.5939C58.926 5.62616 59.7165 4.8418 60.6921 4.8418H80.9626C81.9378 4.8418 82.7286 5.62616 82.7286 6.5939V10.229C82.7286 11.1967 81.9378 11.9814 80.9626 11.9814H73.373C72.3978 11.9814 71.607 12.7658 71.607 13.7335V13.7523C71.607 14.72 72.3978 15.5047 73.373 15.5047H77.5812C78.5565 15.5047 79.347 16.2891 79.347 17.2568V20.8923C79.347 21.86 78.5565 22.6443 77.5812 22.6443H73.373C72.3978 22.6443 71.607 23.429 71.607 24.3968C71.607 25.3645 72.3978 26.1489 73.373 26.1489H80.9626C81.9378 26.1489 82.7286 26.9336 82.7286 27.9013Z" fill="#73ABE7"/>
<rect x="119.013" y="4.84181" width="13.643" height="28.4471" rx="3.48331" fill="#FFAE22"/>
<path d="M189.669 4.84181C190.409 4.84186 191.068 5.31465 191.31 6.01954L199.902 30.9619C200.294 32.1003 199.456 33.289 198.261 33.2891H186.066C186.066 31.0447 184.247 29.2246 182.003 29.2246C179.758 29.2247 177.939 31.0447 177.939 33.2891H165.745C164.55 33.2888 163.711 32.1003 164.103 30.9619L172.695 6.01954C172.938 5.31464 173.597 4.84182 174.337 4.84181H189.669Z" fill="#FE4510"/>
<path d="M163.992 4.84181C165.193 4.84181 166.039 6.02079 165.653 7.15724L157.177 32.0996C156.936 32.8103 156.268 33.2891 155.516 33.2891H145.806C145.055 33.289 144.388 32.8109 144.146 32.1006L135.654 7.15821C135.267 6.0219 136.112 4.84209 137.314 4.84181H146.631C146.913 6.81102 148.606 8.32501 150.653 8.3252C152.7 8.3252 154.394 6.81117 154.675 4.84181H163.992Z" fill="#FE4510"/>
<path d="M113.467 4.84181C114.68 4.84215 115.534 6.02098 115.144 7.15724L106.586 32.0996C106.342 32.8103 105.668 33.289 104.91 33.2891H95.1069C94.3486 33.2891 93.6744 32.811 93.4301 32.1006L84.8559 7.15821C84.4654 6.02185 85.3194 4.84192 86.5326 4.84181H95.8324C96.1142 6.81118 97.8076 8.3252 99.8549 8.3252C101.902 8.32508 103.595 6.81106 103.876 4.84181H113.467Z" fill="#FFAE22"/>
<path d="M43.6638 4.84181C46.8854 4.84185 49.4176 5.65302 51.2605 7.2754C53.1 8.89783 54.0212 10.9262 54.0212 13.3633C54.0212 16.0265 52.9529 18.1134 50.8171 19.6289L50.9949 19.9248L50.9978 19.9238C53.5591 22.9454 55.2258 26.7212 55.9978 31.2432C56.1803 32.312 55.351 33.2891 54.2654 33.2891H48.1853C48.1853 31.0447 46.3662 29.2246 44.1218 29.2246C41.8774 29.2246 40.0583 31.0447 40.0583 33.2891H33.9753C33.0061 33.2891 32.2205 32.5038 32.2205 31.5361V6.59376C32.2205 5.6261 33.0061 4.84181 33.9753 4.84181H43.6638Z" fill="#73ABE7"/>
</svg>
